# xmcd
#
# Track frame offsets: 
#        182
#        19800
#        46922
#        60550
#        73530
#        119522
#        143085
#        162757
#        174865
#        187150
#        206730
#        230160
#
# Disc length: 3478 seconds
#
# Revision: 6
# Processed by: cddbd v1.5.2PL0 Copyright (c) Steve Scherf et al.
# Submitted via: ExactAudioCopyFreeDBPlugin 1.0
#
DISCID=aa0d940c
DTITLE=John Lee Hooker - The Ultimate Collection
DYEAR=1992
DGENRE=Blues
TTITLE0=Shake It Up, Baby
TTITLE1=Five Long Years
TTITLE2=One Bourbon, One Scotch, One Beer
TTITLE3=Mr. Lucky
TTITLE4=Never Get Out Of These Blues Alive
TTITLE5=(I Got) A Good'un
TTITLE6=I Don't Want No Trouble
TTITLE7=Boom, Boom, Boom, Boom
TTITLE8=I'm In The Mood
TTITLE9=You're Wrong
TTITLE10=Lonesome Mood
TTITLE11=Let's Go Out Tonight
EXTD=YEAR: 1992
EXTT0=
EXTT1=
EXTT2=
EXTT3=
EXTT4=Featuring van Morrison\n
EXTT5=
EXTT6=
EXTT7=
EXTT8=
EXTT9=
EXTT10=
EXTT11=
PLAYORDER=
